<svg width="1442" height="690" viewBox="0 0 1442 690" fill="none" xmlns="http://www.w3.org/2000/svg">
<path fill-rule="evenodd" clip-rule="evenodd" d="M0 243.473L59.669 284.051C120.332 324.63 240.665 405.787 360.997 436.571C480.335 467.355 594.203 514.93 788.128 514.93C982.052 514.93 1292.17 740.068 1412.5 678.5C1412.5 705.786 1436.37 665.699 1412.5 678.5L1442 660V0H1382.33C1321.67 0 1201.34 0 1082 0C961.665 0 841.332 0 721 0C600.668 0 480.335 0 360.997 0C240.665 0 120.332 0 59.669 0H0V243.473Z" fill="#F4E800"/>
</svg>
